PathFileType	4	(X/Y/Z)	C:\Users\Graham\Documents\MATLAB\MOtoNMS_v2_2\MyData\ElaboratedData\S1\17-05-18\dynamicElaborations\rightStSt\\ET2\ET2.trc
DataRate	CameraRate	NumFrames	NumMarkers	Units	OrigDataRate	DataStartFrame
100	100	8	29	mm	100	106
Frame#	Time	V_Sacral			R_ASIS			L_ASIS			R_Knee_Lat			R_Thigh_Upper			R_Thigh_Front			R_Thigh_Rear			L_Knee_Lat			L_Thigh_Upper			L_Thigh_Front			L_Thigh_Rear			R_Ankle_Lat			R_Shank_Upper			R_Shank_Front			R_Shank_Rear			L_Ankle_Lat			L_Shank_Upper			L_Shank_Front			L_Shank_Rear			R_Heel			R_MTP1			R_MTP5			L_Heel			L_MTP1			L_MTP5			Clavicle			C7			R_Acromium			L_Acromium		
		X1	Y1	Z1	X2	Y2	Z2	X3	Y3	Z3	X4	Y4	Z4	X5	Y5	Z5	X6	Y6	Z6	X7	Y7	Z7	X8	Y8	Z8	X9	Y9	Z9	X10	Y10	Z10	X11	Y11	Z11	X12	Y12	Z12	X13	Y13	Z13	X14	Y14	Z14	X15	Y15	Z15	X16	Y16	Z16	X17	Y17	Z17	X18	Y18	Z18	X19	Y19	Z19	X20	Y20	Z20	X21	Y21	Z21	X22	Y22	Z22	X23	Y23	Z23	X24	Y24	Z24	X25	Y25	Z25	X26	Y26	Z26	X27	Y27	Z27	X28	Y28	Z28	X29	Y29	Z29	

186	1.850000	-34.264082	1001.031114	-5.110299	274.078186	1008.641270	136.772641	275.865367	1009.917569	-118.284285	120.283132	509.242755	169.346323	250.294618	840.149745	169.652970	265.701019	716.553122	139.300847	202.077117	717.855731	187.170939	355.774562	537.029239	-128.542590	337.903864	864.516704	-126.661188	373.127949	755.481545	-70.161311	351.787843	740.246079	-151.479727	-163.323879	182.125084	146.725937	27.848550	311.284574	142.817338	-60.002882	247.024229	75.968577	-76.256249	245.482503	157.662445	354.368619	99.004257	-105.482068	412.398746	329.125213	-85.838929	385.818885	214.768774	-35.143875	384.402786	211.823276	-116.517384	-251.403256	192.743868	90.606504	-82.132213	62.091915	44.271130	-97.772758	50.050412	115.737851	279.553781	59.900600	-58.323955	513.184689	63.964046	-26.216848	496.598978	56.085222	-114.207607	290.930221	1441.336310	6.587675	149.610046	1550.728739	9.832000	246.141591	1470.936646	203.024884	225.548851	1479.331345	-202.200596	
187	1.860000	-33.327487	1002.161702	-6.605054	274.595682	1010.175731	135.505261	277.055132	1011.271422	-119.595001	131.374682	508.776466	170.595568	253.341188	842.356733	168.673832	271.458834	718.697812	139.690401	208.046169	719.411451	187.201258	353.459689	536.782889	-129.421751	338.894552	864.558910	-128.656300	373.248446	755.468268	-71.735264	351.587806	740.067523	-152.955057	-159.938535	189.897763	147.496924	34.569537	313.031854	143.439053	-55.130615	251.556480	76.634092	-71.503033	250.247392	158.095356	344.951405	98.851415	-105.416652	406.799554	327.996402	-86.722977	378.757058	214.162604	-35.597661	376.745678	211.100637	-116.960132	-246.662271	206.887068	91.376669	-86.093746	64.993221	44.713551	-102.458111	52.817783	116.711127	270.157594	59.774297	-58.257881	503.930988	63.608529	-26.154727	487.351021	55.828924	-113.985916	291.489720	1442.766376	4.703612	150.034748	1552.033772	7.787189	246.577025	1472.648622	201.007520	226.496758	1480.768211	-203.991446	
188	1.870000	-32.650736	1003.429622	-8.045593	274.932376	1011.688143	134.379860	278.014608	1012.589481	-120.769282	142.585661	508.505253	171.754011	256.314413	844.576328	167.953309	277.175002	720.895279	140.272294	214.000367	720.955647	187.339614	350.377037	536.431473	-130.398677	339.498863	864.350359	-130.555235	372.751175	755.125824	-73.237447	350.832836	739.641099	-154.386467	-156.110886	198.110167	148.177942	41.626000	315.103939	143.731890	-50.014553	256.601985	77.168809	-66.226245	255.291903	158.380963	335.467346	98.699231	-105.417527	400.717882	326.907261	-87.838210	371.530923	213.603819	-36.175711	368.663547	210.414998	-117.533990	-241.227247	220.970104	91.966455	-89.042745	68.701852	45.167821	-105.995331	56.488947	117.900680	260.718626	59.659403	-58.208590	494.581744	63.339723	-26.152158	478.043941	55.562972	-113.854491	291.924064	1444.186941	2.929883	150.339937	1553.347931	5.818399	246.815262	1474.341132	199.110029	227.400121	1482.205291	-205.696966	
189	1.880000	-32.214996	1004.822295	-9.457875	275.104772	1013.173091	133.403687	278.727297	1013.859122	-121.796992	153.743085	508.516999	172.778153	259.195090	846.801973	167.463234	282.777704	723.156832	140.979092	219.840043	722.485314	187.550636	346.607556	536.014539	-131.459073	339.647365	863.978817	-132.212791	371.666192	754.528286	-74.612496	349.560201	739.082650	-155.725677	-151.953431	206.665226	148.684347	48.876210	317.569961	143.736992	-44.694557	262.126431	77.520341	-60.552306	260.635569	158.512986	325.953181	98.545108	-105.483989	394.230574	325.870769	-89.112877	364.132777	213.099974	-36.841392	360.278426	209.767953	-118.200119	-235.376577	234.559308	92.269598	-90.801807	73.168306	45.596678	-108.165911	61.078087	119.248883	251.257901	59.564551	-58.177449	485.175694	63.111618	-26.221035	468.696379	55.263219	-113.821377	292.232432	1445.577642	1.293392	150.542255	1554.657425	3.939812	246.845959	1475.986527	197.365499	228.265856	1483.584076	-207.300999	
190	1.890000	-31.996633	1006.320999	-10.856950	275.131870	1014.633325	132.565202	279.186374	1015.077810	-122.686254	164.704070	508.891233	173.651255	261.965450	849.050501	167.145489	288.213938	725.520719	141.730735	225.493194	724.036660	187.802553	342.245670	535.568265	-132.571058	339.297629	863.532813	-133.547199	370.046225	753.763480	-75.837561	347.815278	738.497213	-156.950635	-147.505904	215.396661	148.946470	56.229132	320.463440	143.541684	-39.139825	268.018414	77.664382	-54.572450	266.258924	158.501603	316.429137	98.389970	-105.601261	387.411447	324.897613	-90.444003	356.532105	212.655031	-37.541138	351.711364	209.160509	-118.898901	-229.340263	247.202738	92.206347	-91.147603	78.291809	45.988068	-108.718487	66.528915	120.691290	241.785155	59.491264	-58.160550	475.737772	62.900396	-26.351436	459.317852	54.936381	-113.870787	292.416404	1446.929301	-0.188121	150.659283	1555.958610	2.165071	246.671882	1477.568940	195.795906	229.089199	1484.865689	-208.789983	
191	1.900000	-31.969763	1007.901907	-12.244876	275.032514	1016.078052	131.839729	279.398595	1016.251424	-123.458208	175.362677	509.688106	174.377413	264.606054	851.356452	166.924708	293.448588	728.042636	142.447359	230.916980	725.676564	188.070384	337.386687	535.121778	-133.693473	338.446913	863.083227	-134.548724	367.957499	752.913347	-76.920510	345.643208	737.957935	-158.063512	-142.737144	224.076325	148.923931	63.649990	323.766386	143.255828	-33.267895	274.094955	77.608590	-48.333299	272.088181	158.371147	306.901808	98.237472	-105.746583	380.323789	323.995144	-91.726689	348.694418	212.269465	-38.220580	343.062456	208.593977	-119.569534	-223.264981	258.484273	91.738082	-89.832351	83.924919	46.368356	-107.407925	72.703619	122.167623	232.301795	59.437355	-58.150909	466.280994	62.697580	-26.520835	449.911768	54.604201	-113.973387	292.480027	1448.243187	-1.508313	150.706523	1557.256192	0.505045	246.307627	1479.084644	194.410060	229.854090	1486.033980	-210.155707	
192	1.910000	-32.108456	1009.538618	-13.610390	274.823274	1017.520139	131.195891	279.385181	1017.392231	-124.141095	185.653051	510.940267	174.971866	267.093750	853.763135	166.724814	298.458976	730.782051	143.061801	236.091288	727.485236	188.337626	332.115927	534.695448	-134.784662	337.134639	862.673046	-135.271614	365.472683	752.041183	-77.892624	343.083948	737.497835	-159.084015	-137.559951	232.433515	148.613127	71.156804	327.402993	142.982371	-26.971409	280.123189	77.386886	-41.832817	277.988826	158.154002	297.368154	98.093302	-105.895327	373.015851	323.166960	-92.880164	340.598961	211.940839	-38.838464	334.396275	208.070982	-120.167768	-217.193745	268.075297	90.873421	-86.629017	89.873998	46.798929	-104.047438	79.379091	123.629743	222.804211	59.399583	-58.140675	456.809326	62.503097	-26.703847	440.478051	54.289943	-114.097176	292.429655	1449.528859	-2.672560	150.695301	1558.560253	-1.033765	245.777303	1480.540786	193.203628	230.535942	1487.095071	-211.397202	
193	1.920000	-32.388802	1011.205209	-14.930332	274.517162	1018.972555	130.601271	279.178497	1018.516349	-124.765301	195.548170	512.649172	175.450531	269.401867	856.312753	166.485084	303.228080	733.788499	143.528951	241.008373	729.535623	188.596147	326.501854	534.301061	-135.809294	335.434921	862.315551	-135.814183	362.666582	751.187098	-78.798168	340.171998	737.113437	-160.040471	-131.854149	240.182285	148.046279	78.808801	331.245130	142.790647	-20.145654	285.852995	77.046730	-35.023354	283.771297	157.882109	287.820314	97.964348	-106.025972	365.520388	322.413178	-93.862827	332.249989	211.664507	-39.374406	325.737119	207.596042	-120.675636	-211.065860	275.770499	89.665671	-81.388007	95.899394	47.355773	-98.556362	86.255946	125.045077	213.286844	59.375388	-58.123037	447.321109	62.319647	-26.879511	431.015367	54.009724	-114.215804	292.273628	1450.800931	-3.696308	150.631987	1559.882656	-2.449915	245.111439	1481.952595	192.160920	231.106283	1488.073696	-212.521244	
